<?xml version="1.0" encoding="UTF-8"?>
<svg version="1.1" xmlns="http://www.w3.org/2000/svg" width="2021" height="2038">
<path d="M0 0 C1.05501709 0.92776245 1.05501709 0.92776245 2.13134766 1.87426758 C8.51235771 7.54118376 14.60411319 13.44917589 20.6237793 19.4934082 C22.1927236 21.06774155 23.76698558 22.63661589 25.34179688 24.20507812 C30.77162321 29.63095297 36.03657521 35.13969683 41 41 C41.98440455 42.13001607 42.9700502 43.25895236 43.95703125 44.38671875 C67.26470008 71.25142964 86.94938472 100.83450038 104 132 C104.42539062 132.77553223 104.85078125 133.55106445 105.2890625 134.35009766 C140.09036107 198.19063768 157.08825459 268.88202773 162 341 C162.06469482 340.11256104 162.12938965 339.22512207 162.19604492 338.31079102 C169.08940879 246.04622216 197.11220888 158.43147068 256 76 C256.68908447 75.05616455 256.68908447 75.05616455 257.39208984 74.09326172 C266.50349444 61.61942353 276.3349633 49.93119311 286.72753906 38.50756836 C288.16589735 36.9203984 289.59718077 35.32676319 291.01855469 33.72436523 C296.66162062 27.37295089 302.54265065 21.30619504 308.5625 15.3125 C309.45646484 14.41466797 310.35042969 13.51683594 311.27148438 12.59179688 C316.35276588 7.51794958 321.53602703 2.65722174 327 -2 C328.08318668 -2.94920393 329.1652678 -3.89967136 330.24609375 -4.8515625 C339.19034879 -12.65257735 348.49950529 -19.89192491 358 -27 C358.6408252 -27.48355957 359.28165039 -27.96711914 359.94189453 -28.46533203 C369.66173548 -35.79508966 379.67682539 -42.54997144 390 -49 C390.74813965 -49.47018555 391.4962793 -49.94037109 392.26708984 -50.42480469 C406.73476015 -59.46977783 421.75743067 -67.348555 437 -75 C437.93489258 -75.47211914 438.86978516 -75.94423828 439.83300781 -76.43066406 C516.638756 -114.98958973 605.49635586 -128.99102419 805.18286133 -99.4609375 C862.81633286 -80.1067203 918.46188273 -50.5544432 964.39794922 -10.39160156 C966.13956443 -8.87876908 967.89798791 -7.38726924 969.66015625 -5.8984375 C975.10732488 -1.28819806 980.48390776 3.29455892 985.44140625 8.4375 C987.15932171 10.15972101 988.96415643 11.73134273 990.8125 13.3125 C997.74812174 19.30724282 1004.14220627 25.85203297 1010.09765625 32.81640625 C1012.006658 35.00764234 1013.96948855 37.14285901 1015.94677734 39.27246094 C1021.55623581 45.32108726 1026.86452912 51.54003267 1032 58 C1032.98955022 59.21226661 1033.97913591 60.42450428 1034.96875 61.63671875 C1042.62308797 71.13253844 1049.55378857 81.04541029 1056.3125 91.1875 C1056.93640121 92.12138046 1056.93640121 92.12138046 1057.57290649 93.0741272 C1107.33630466 167.7370555 1136.08030492 254.51529157 1140 352 C1140.03287109 353.42699219 1140.03287109 353.42699219 1140.06640625 354.8828125 C1141.06836942 406.58411191 1134.16465019 458.54827974 1119 508 C1118.63036133 509.20785156 1118.26072266 510.41570313 1117.87988281 511.66015625 C1100.88290522 566.40740668 1074.18717015 617.71855697 1039 663 C1038.09082449 664.18595164 1037.18196818 665.37214805 1036.2734375 666.55859375 C1022.75987299 684.09555922 1007.73311516 700.32009982 992.125 716 C991.43567383 716.69399902 990.74634766 717.38799805 990.03613281 718.10302734 C985.51962007 722.6054056 980.83152985 726.84012879 976 731 C974.84355766 732.02174856 973.68856154 733.04513679 972.53515625 734.0703125 C963.99611843 741.60547602 955.17539196 748.65922242 946.04931641 755.46972656 C944.12456209 756.90698652 942.20831525 758.3549302 940.29296875 759.8046875 C867.27869764 814.66181358 780.17021532 843.93414983 690 853 C690 853.33 690 853.66 690 854 C691.33901367 854.13462646 691.33901367 854.13462646 692.70507812 854.27197266 C782.03864211 863.42649689 868.04786499 893.1149179 964 966 C964.52094238 966.43602539 965.04188477 966.87205078 965.57861328 967.32128906 C978.06955821 977.79897473 989.94476467 988.87631558 1001.5 1000.375 C1002.46945557 1001.33744629 1002.46945557 1001.33744629 1003.45849609 1002.31933594 C1007.27859513 1006.15229726 1010.90490647 1010.10490028 1014.44140625 1014.20068359 C1016.33288212 1016.3842953 1018.28996489 1018.50291475 1020.25 1020.625 C1025.34469623 1026.27327953 1030.00263183 1032.22592727 1034.64453125 1038.24609375 C1035.92216343 1039.89928351 1037.20934159 1041.54447136 1038.5 1043.1875 C1092.75135905 1112.74052442 1126.27705434 1196.68844309 1136.25 1404.125 C1130.60725961 1448.58941298 1119.01054035 1492.88898398 1101 1534 C1100.60522461 1534.90476074 1100.21044922 1535.80952148 1099.80371094 1536.74169922 C1077.69479553 1587.00533184 1047.96347887 1632.8849908 1010.6171875 1673.1640625 C1008.21231237 1675.76994211 1005.85209493 1678.40906907 1003.5 1681.0625 C996.78481297 1688.53449701 989.72700569 1695.67529962 982.08203125 1702.19921875 C979.56846422 1704.37324202 977.13223771 1706.62390488 974.6875 1708.875 C969.79218884 1713.32893064 964.79055225 1717.59318605 959.60986328 1721.71142578 C957.8826738 1723.09391078 956.17473048 1724.49852811 954.46484375 1725.90234375 C933.32494662 1743.01385218 909.972645 1758.18695427 886 1771 C885.1023291 1771.48581543 884.2046582 1771.97163086 883.27978516 1772.47216797 C794.4704746 1820.41782759 692.64672415 1839.31388202 510.19726562 1810.90396118 C487.12645881 1803.94027315 464.75364583 1795.3842334 443 1785 C441.83742676 1784.44554199 440.67485352 1783.89108398 439.47705078 1783.31982422 C407.37423564 1767.88485692 376.79950581 1749.33717484 349 1727 C348.00484375 1726.20464844 347.0096875 1725.40929688 345.984375 1724.58984375 C343.30201095 1722.41712887 340.64734379 1720.21520385 338 1718 C336.9996875 1717.17371094 335.999375 1716.34742188 334.96875 1715.49609375 C322.72273465 1705.32427308 311.27571368 1694.35483303 300 1683.125 C299.21093262 1682.34060547 298.42186523 1681.55621094 297.60888672 1680.74804688 C292.86665849 1675.99271021 288.3702787 1671.09713604 284 1666 C282.94294585 1664.79682271 281.88437877 1663.59497275 280.82421875 1662.39453125 C273.88712499 1654.49213435 267.24703787 1646.46482711 261 1638 C260.24203125 1636.97302002 260.24203125 1636.97302002 259.46875 1635.92529297 C230.31551196 1596.26883005 206.66783891 1553.3927595 190 1507 C189.64599121 1506.01644531 189.29198242 1505.03289062 188.92724609 1504.01953125 C174.87522968 1464.50771409 166.09183277 1422.8320712 163 1381 C161.12198299 1382.87801701 161.48852346 1386.07216591 161.23828125 1388.59375 C161.09151088 1390.0143215 160.94393072 1391.43480951 160.7956543 1392.85522461 C160.71761566 1393.61108856 160.63957703 1394.36695251 160.55917358 1395.14572144 C151.8865944 1477.91772702 122.53807141 1558.18077428 74 1626 C73.4519873 1626.76586426 72.90397461 1627.53172852 72.33935547 1628.32080078 C65.71223583 1637.53736153 58.93862508 1646.53837896 51.4921875 1655.109375 C49.19469174 1657.77418199 46.99903788 1660.49413717 44.8125 1663.25 C35.61928589 1674.5169942 25.24944047 1684.82789827 15 1695.125 C14.31873047 1695.81094238 13.63746094 1696.49688477 12.93554688 1697.20361328 C8.45285117 1701.67206778 3.7944914 1705.87050007 -1 1710 C-2.15642381 1711.02176953 -3.31142021 1712.04515732 -4.46484375 1713.0703125 C-13.64641239 1721.17331942 -23.17014711 1728.70127925 -33 1736 C-33.70995117 1736.53093262 -34.41990234 1737.06186523 -35.15136719 1737.60888672 C-57.89770602 1754.5732197 -82.22641365 1769.64352069 -107.81494141 1781.93994141 C-110.22492133 1783.10911826 -112.61779922 1784.31001721 -115.01171875 1785.51171875 C-169.98544765 1812.81828478 -230.04100829 1827.03001211 -291 1832 C-291.86915039 1832.07202637 -292.73830078 1832.14405273 -293.63378906 1832.21826172 C-376.00208687 1838.69030179 -461.49919011 1821.82165076 -634 1724 C-635.06721955 1723.10618689 -636.13495443 1722.21298885 -637.203125 1721.3203125 C-643.1112306 1716.36902003 -648.93233527 1711.33896789 -654.6328125 1706.1484375 C-656.15704686 1704.76505648 -657.69274506 1703.39414979 -659.2421875 1702.0390625 C-664.93028593 1697.04043055 -670.32441773 1691.78152945 -675.6875 1686.4375 C-676.40043213 1685.72916016 -677.11336426 1685.02082031 -677.84790039 1684.29101562 C-681.88255436 1680.24464255 -685.7393949 1676.09894169 -689.4699707 1671.77075195 C-691.35001415 1669.59491741 -693.29904135 1667.48725838 -695.25 1665.375 C-700.34835728 1659.72266163 -705.00842754 1653.76543138 -709.65332031 1647.74072266 C-710.90267866 1646.12579789 -712.16562873 1644.52141307 -713.4296875 1642.91796875 C-731.30626305 1620.08870259 -746.52836283 1595.64946364 -760 1570 C-760.48823242 1569.07944824 -760.97646484 1568.15889648 -761.47949219 1567.21044922 C-792.05129716 1509.26105884 -808.70209497 1445.10513174 -814 1380 C-814.07057617 1379.16968262 -814.14115234 1378.33936523 -814.21386719 1377.48388672 C-821.91947897 1282.75378633 -798.97244809 1184.71089312 -719 1051 C-718.55172852 1050.39865234 -718.10345703 1049.79730469 -717.64160156 1049.17773438 C-711.40994614 1040.84684605 -704.79302916 1032.8744542 -698 1025 C-697.36191406 1024.26007813 -696.72382812 1023.52015625 -696.06640625 1022.7578125 C-694.38878335 1020.82835244 -692.69524303 1018.9139914 -691 1017 C-690.1037793 1015.9776123 -690.1037793 1015.9776123 -689.18945312 1014.93457031 C-683.01913263 1007.97295511 -676.53917983 1001.35299996 -669.96240234 994.77709961 C-668.12957731 992.94208278 -666.3049299 991.0991875 -664.48046875 989.25585938 C-658.34850817 983.09526606 -652.17176538 977.24752359 -645.33691406 971.86328125 C-643.01403513 970.01119057 -640.81520998 968.06875881 -638.625 966.0625 C-633.01274874 961.03423961 -627.03951698 956.49618858 -621 952 C-620.33323242 951.50338867 -619.66646484 951.00677734 -618.97949219 950.49511719 C-594.34837427 932.24098773 -568.34595555 916.81252209 -541 903 C-540.13681152 902.56300781 -539.27362305 902.12601563 -538.38427734 901.67578125 C-484.94529775 874.84794828 -427.12112203 861.32004741 -368 855 C-370.7603696 853.6198152 -373.29196966 853.57916091 -376.3671875 853.2734375 C-377.7230948 853.13226636 -379.0788841 852.98995844 -380.43457031 852.84667969 C-381.51720154 852.73277893 -381.51720154 852.73277893 -382.6217041 852.61657715 C-431.340048 847.3934555 -479.19658631 834.89884514 -524 815 C-525.56911133 814.30801514 -525.56911133 814.30801514 -527.16992188 813.60205078 C-572.50271779 793.50178857 -613.22213816 766.66534568 -650.75 734.375 C-651.67159912 733.58512695 -651.67159912 733.58512695 -652.61181641 732.77929688 C-656.38467055 729.51023631 -659.949598 726.09800121 -663.45507812 722.54443359 C-665.18938997 720.81066989 -666.9975617 719.20204818 -668.875 717.625 C-675.42956456 711.95790066 -681.42657464 705.79399625 -687.0625 699.21875 C-688.98553803 697.01656128 -690.95987838 694.86784957 -692.94897461 692.7253418 C-698.55539591 686.67931411 -703.87893936 680.46538686 -709 674 C-709.50370117 673.36884277 -710.00740234 672.73768555 -710.52636719 672.08740234 C-772.66015108 594.08069374 -810.84960585 498.65181224 -815.79554749 311.51068115 C-804.7764592 217.62466074 -768.24465276 127.67019441 -706 53 C-705.0766444 51.88035553 -704.15346004 50.76056981 -703.23046875 49.640625 C-692.85770731 37.133075 -681.58842777 25.50549172 -670.125 14 C-669.24537598 13.11570313 -668.36575195 12.23140625 -667.45947266 11.3203125 C-662.4661048 6.33924591 -657.3606558 1.58121327 -652 -3 C-650.95162757 -3.92538966 -649.90467491 -4.85239109 -648.859375 -5.78125 C-639.00736958 -14.43648938 -628.57326853 -22.25263339 -618 -30 C-617.01700928 -30.72364746 -617.01700928 -30.72364746 -616.01416016 -31.46191406 C-545.51790751 -83.23408772 -460.56907017 -114.54579707 0 0 Z " fill="#48C3D2" transform="translate(850,168)"/>
<path d="M0 0 C107.96333016 -2.26232822 217.56846785 37.05927645 326 125 C326.70334473 125.6185083 327.40668945 126.2370166 328.13134766 126.87426758 C334.51235771 132.54118376 340.60411319 138.44917589 346.6237793 144.4934082 C348.1927236 146.06774155 349.76698558 147.63661589 351.34179688 149.20507812 C356.77162321 154.63095297 362.03657521 160.13969683 367 166 C367.98440455 167.13001607 368.9700502 168.25895236 369.95703125 169.38671875 C393.26470008 196.25142964 412.94938472 225.83450038 430 257 C430.42539062 257.77553223 430.85078125 258.55106445 431.2890625 259.35009766 C466.09036107 323.19063768 483.08825459 393.88202773 488 466 C488.06469482 465.11256104 488.12938965 464.22512207 488.19604492 463.31079102 C495.08940879 371.04622216 523.11220888 283.43147068 582 201 C582.45938965 200.37077637 582.9187793 199.74155273 583.39208984 199.09326172 C592.50349444 186.61942353 602.3349633 174.93119311 612.72753906 163.50756836 C614.16589735 161.9203984 615.59718077 160.32676319 617.01855469 158.72436523 C622.66162062 152.37295089 628.54265065 146.30619504 634.5625 140.3125 C635.45646484 139.41466797 636.35042969 138.51683594 637.27148438 137.59179688 C642.35276588 132.51794958 647.53602703 127.65722174 653 123 C654.08318668 122.05079607 655.1652678 121.10032864 656.24609375 120.1484375 C665.19034879 112.34742265 674.49950529 105.10807509 684 98 C684.6408252 97.51644043 685.28165039 97.03288086 685.94189453 96.53466797 C695.66173548 89.20491034 705.67682539 82.45002856 716 76 C716.74813965 75.52981445 717.4962793 75.05962891 718.26708984 74.57519531 C732.73476015 65.53022217 747.75743067 57.651445 763 50 C763.93489258 49.52788086 764.86978516 49.05576172 765.83300781 48.56933594 C842.638756 10.01041027 931.49635586 -3.99102419 1131.18286133 25.5390625 C1188.81633286 44.8932797 1244.46188273 74.4455568 1290.39794922 114.60839844 C1292.13956443 116.12123092 1293.89798791 117.61273076 1295.66015625 119.1015625 C1301.10732488 123.71180194 1306.48390776 128.29455892 1311.44140625 133.4375 C1313.15932171 135.15972101 1314.96415643 136.73134273 1316.8125 138.3125 C1323.74812174 144.30724282 1330.14220627 150.85203297 1336.09765625 157.81640625 C1338.006658 160.00764234 1339.96948855 162.14285901 1341.94677734 164.27246094 C1347.55623581 170.32108726 1352.86452912 176.54003267 1358 183 C1358.98955022 184.21226661 1359.97913591 185.42450428 1360.96875 186.63671875 C1368.62308797 196.13253844 1375.55378857 206.04541029 1382.3125 216.1875 C1382.93640121 217.12138046 1382.93640121 217.12138046 1383.57290649 218.0741272 C1433.33630466 292.7370555 1462.08030492 379.51529157 1466 477 C1466.03287109 478.42699219 1466.03287109 478.42699219 1466.06640625 479.8828125 C1467.06836942 531.58411191 1460.16465019 583.54827974 1445 633 C1444.63036133 634.20785156 1444.26072266 635.41570313 1443.87988281 636.66015625 C1426.88290522 691.40740668 1400.18717015 742.71855697 1365 788 C1364.09082449 789.18595164 1363.18196818 790.37214805 1362.2734375 791.55859375 C1348.75987299 809.09555922 1333.73311516 825.32009982 1318.125 841 C1317.43567383 841.69399902 1316.74634766 842.38799805 1316.03613281 843.10302734 C1311.51962007 847.6054056 1306.83152985 851.84012879 1302 856 C1300.84355766 857.02174856 1299.68856154 858.04513679 1298.53515625 859.0703125 C1289.99611843 866.60547602 1281.17539196 873.65922242 1272.04931641 880.46972656 C1270.12456209 881.90698652 1268.20831525 883.3549302 1266.29296875 884.8046875 C1193.27869764 939.66181358 1106.17021532 968.93414983 1016 978 C1016 978.33 1016 978.66 1016 979 C1017.33901367 979.13462646 1017.33901367 979.13462646 1018.70507812 979.27197266 C1108.03864211 988.42649689 1194.04786499 1018.1149179 1290 1091 C1290.52094238 1091.43602539 1291.04188477 1091.87205078 1291.57861328 1092.32128906 C1304.06955821 1102.79897473 1315.94476467 1113.87631558 1327.5 1125.375 C1328.46945557 1126.33744629 1328.46945557 1126.33744629 1329.45849609 1127.31933594 C1333.27859513 1131.15229726 1336.90490647 1135.10490028 1340.44140625 1139.20068359 C1342.33288212 1141.3842953 1344.28996489 1143.50291475 1346.25 1145.625 C1351.34469623 1151.27327953 1356.00263183 1157.22592727 1360.64453125 1163.24609375 C1361.92216343 1164.89928351 1363.20934159 1166.54447136 1364.5 1168.1875 C1418.75135905 1237.74052442 1452.27705434 1321.68844309 1466 1480 C1465.67 1480 1465.34 1480 1465 1480 C1465 1475.71 1465 1471.42 1465 1467 C1142.92 1467 820.84 1467 489 1467 C489 1352.21969455 526.67599153 1243.63187839 603 1151 C603.73404053 1150.11513916 603.73404053 1150.11513916 604.48291016 1149.21240234 C616.8698813 1134.3438451 630.05460537 1119.5798522 644.7578125 1106.96484375 C646.92176354 1105.06855913 649.02547489 1103.11668502 651.12524414 1101.14990234 C656.981325 1095.68371846 663.07791571 1090.6638949 669.42578125 1085.78125 C671.71705603 1084.01579104 673.96034944 1082.21263407 676.16796875 1080.34375 C684.68464845 1073.19193099 693.75576494 1066.97290088 703 1060.8125 C703.62817627 1060.39283966 704.25635254 1059.97317932 704.90356445 1059.540802 C753.02609573 1027.46669868 806.58327951 1003.12087117 863 990 C863.95551758 989.77618652 864.91103516 989.55237305 865.89550781 989.32177734 C890.73487781 983.56531284 915.68276756 980.69411083 941 978 C939.59814453 977.84966309 939.59814453 977.84966309 938.16796875 977.69628906 C863.50629518 969.6406605 792.95998719 949.4859011 728 911 C727.09233887 910.4622998 726.18467773 909.92459961 725.24951172 909.37060547 C713.45387379 902.33130728 702.13986557 894.79718424 691.12890625 886.58642578 C689.02021379 885.01506298 686.90177345 883.45769044 684.78125 881.90234375 C676.22407816 875.59397118 668.01957602 868.97692022 660 862 C658.89591797 861.04673828 658.89591797 861.04673828 657.76953125 860.07421875 C655.83535595 858.39484499 653.9174404 856.69844745 652 855 C651.3184082 854.40251953 650.63681641 853.80503906 649.93457031 853.18945312 C642.97295511 847.01913263 636.35299996 840.53917983 629.77709961 833.96240234 C627.94208278 832.12957731 626.0991875 830.3049299 624.25585938 828.48046875 C617.37021096 821.62729025 611.00746313 814.64556945 605 807 C604.10079952 805.9144841 603.1968978 804.8328165 602.28515625 803.7578125 C580.96779352 778.50666578 562.71693312 751.04641322 547 722 C546.5251416 721.12553223 546.0502832 720.25106445 545.56103516 719.35009766 C523.43610242 678.4091112 507.63221453 634.50433611 498 589 C497.76297363 587.90993652 497.52594727 586.81987305 497.28173828 585.69677734 C491.5929957 559.21021929 489.39850803 532.01900135 488 505 C487.93006836 505.90838623 487.86013672 506.81677246 487.78808594 507.75268555 C486.1826018 528.28455621 484.1735149 548.64045944 481 569 C480.83306641 570.11262207 480.66613281 571.22524414 480.49414062 572.37158203 C473.05658506 621.26424857 455.9689723 667.87197444 434 712 C433.55575684 712.89783203 433.11151367 713.79566406 432.65380859 714.72070312 C422.12361218 735.86822057 409.75023031 756.06334799 395.546875 774.94287109 C393.96744991 777.04328709 392.40434614 779.15509732 390.84375 781.26953125 C385.10270161 789.02264613 379.217751 796.62034603 373 804 C372.5678418 804.5170752 372.13568359 805.03415039 371.69042969 805.56689453 C365.66878774 812.76188673 359.4605224 819.76213721 353.0625 826.625 C352.43585449 827.30006592 351.80920898 827.97513184 351.16357422 828.6706543 C347.94976678 832.08797119 344.69812303 835.09938524 341 838 C339.96489519 839.15702821 338.96047307 840.34280835 338 841.5625 C335.57168375 844.48512999 333.28963999 846.07435708 330 848 C328.93471576 849.01750104 327.89585172 850.06292624 326.875 851.125 C323.16898002 854.94283955 319.14095341 858.23311476 314.99609375 861.5625 C312.45765991 863.62766652 309.97682883 865.74324184 307.50830078 867.89086914 C264.43430259 905.16052222 211.61181587 932.07222561 158.19238281 950.86499023 C155.31418266 951.88829648 152.45894592 952.95947127 149.6015625 954.0390625 C142.6897871 956.55283559 135.60609221 958.44089743 128.5 960.3125 C127.40634125 960.60172333 127.40634125 960.60172333 126.29058838 960.89678955 C101.55780039 967.39993095 76.47423098 972.53951967 51 975 C50.00419922 975.10151367 49.00839844 975.20302734 47.98242188 975.30761719 C31.87907011 976.9199869 16.26745791 977 0 977 C0 815.96 0 654.92 0 489 C160.05 489 320.1 489 485 489 C484.11199459 464.13584847 482.63941161 440.10044878 478.875 415.625 C478.72415955 414.6368631 478.57331909 413.6487262 478.41790771 412.63064575 C475.61740036 394.45831489 471.94921414 376.70626025 467 359 C466.66274902 357.78715332 466.32549805 356.57430664 465.97802734 355.32470703 C450.17589395 299.51850171 423.76952315 246.36698909 389 200 C388.54109375 199.38801758 388.0821875 198.77603516 387.609375 198.14550781 C381.9307998 190.6088694 376.05166865 183.24021242 370 176 C369.35538818 175.2258374 369.35538818 175.2258374 368.69775391 174.43603516 C355.60251403 158.75639327 341.66742635 143.13399135 326.12109375 129.83984375 C323.57458942 127.63099746 321.1039984 125.34679446 318.625 123.0625 C314.50005589 119.30896969 310.31213302 115.71482952 305.91796875 112.28125 C303.73322365 110.57322974 301.57558092 108.84464677 299.42578125 107.09375 C278.181432 89.97489144 254.8770331 75.14488904 231 62 C230.00758301 61.4529541 229.01516602 60.9059082 227.99267578 60.34228516 C203.00559355 46.69515575 176.93267885 36.13724212 150 27 C148.95279785 26.63922363 147.9055957 26.27844727 146.82666016 25.90673828 C99.40896224 9.64602891 49.90102178 3.50117182 0 2 C0 1.34 0 0.68 0 0 Z " fill="#FEFEFE" transform="translate(524,43)"/>
<path d="M0 0 C161.04 0 322.08 0 488 0 C488 161.04 488 322.08 488 488 C495.26 488 502.52 488 510 488 C514.52398304 488.18605125 518.99266457 488.40066484 523.5 488.75 C524.66104248 488.83797852 525.82208496 488.92595703 527.01831055 489.01660156 C583.38035 493.58619095 638.53094685 507.57744791 690 531 C691.0430127 531.47405273 692.08602539 531.94810547 693.16064453 532.43652344 C732.07916165 550.28883541 768.23689832 573.45455152 801 601 C801.52094238 601.43602539 802.04188477 601.87205078 802.57861328 602.32128906 C815.06955821 612.79897473 826.94476467 623.87631558 838.5 635.375 C839.14630371 636.01663086 839.79260742 636.65826172 840.45849609 637.31933594 C844.27859513 641.15229726 847.90490647 645.10490028 851.44140625 649.20068359 C853.33288212 651.3842953 855.28996489 653.50291475 857.25 655.625 C862.34469623 661.27327953 867.00263183 667.22592727 871.64453125 673.24609375 C872.92216343 674.89928351 874.20934159 676.54447136 875.5 678.1875 C929.75135905 747.74052442 963.27705434 831.68844309 977 990 C976.67 990 976.34 990 976 990 C976 985.71 976 981.42 976 977 C653.92 977 331.84 977 0 977 C0 862.21969455 37.67599153 753.63187839 114 661 C114.48936035 660.41009277 114.9787207 659.82018555 115.48291016 659.21240234 C127.8698813 644.3438451 141.05460537 629.5798522 155.7578125 616.96484375 C157.92176354 615.06855913 160.02547489 613.11668502 162.12524414 611.14990234 C167.981325 605.68371846 174.07791571 600.6638949 180.42578125 595.78125 C182.71705603 594.01579104 184.96034944 592.21263407 187.16796875 590.34375 C195.68464845 583.19193099 204.75576494 576.97290088 214 570.8125 C214.9422644 570.18300949 214.9422644 570.18300949 215.90356445 569.540802 C264.02609573 537.46669868 317.58327951 513.12087117 374 500 C375.43327637 499.66427979 375.43327637 499.66427979 376.89550781 499.32177734 C401.73487781 493.56531284 426.68276756 490.69411083 452 488 C450.59814453 487.84966309 450.59814453 487.84966309 449.16796875 487.69628906 C374.50629518 479.6406605 303.95998719 459.4859011 239 421 C238.09233887 420.4622998 237.18467773 419.92459961 236.24951172 419.37060547 C224.45387379 412.33130728 213.13986557 404.79718424 202.12890625 396.58642578 C200.02021379 395.01506298 197.90177345 393.45769044 195.78125 391.90234375 C187.22407816 385.59397118 179.01957602 378.97692022 171 372 C169.89591797 371.04673828 169.89591797 371.04673828 168.76953125 370.07421875 C166.83535595 368.39484499 164.9174404 366.69844745 163 365 C162.3184082 364.40251953 161.63681641 363.80503906 160.93457031 363.18945312 C153.97295511 357.01913263 147.35299996 350.53917983 140.77709961 343.96240234 C138.94208278 342.12957731 137.0991875 340.3049299 135.25585938 338.48046875 C128.37021096 331.62729025 122.00746313 324.64556945 116 317 C115.10079952 315.9144841 114.1968978 314.8328165 113.28515625 313.7578125 C91.96779352 288.50666578 73.71693312 261.04641322 58 232 C57.5251416 231.12553223 57.0502832 230.25106445 56.56103516 229.35009766 C34.43610242 188.4091112 18.63221453 144.50433611 9 99 C8.76297363 97.90993652 8.52594727 96.81987305 8.28173828 95.69677734 C5.19790467 81.3385713 3.24479179 66.90257024 1.6875 52.3125 C1.60005524 51.53755188 1.51261047 50.76260376 1.42251587 49.96417236 C-0.43515176 33.2156276 0 17.00929972 0 0 Z " fill="#FEFEFE" transform="translate(1013,533)"/>
<path d="M0 0 C322.08 0 644.16 0 976 0 C976 66.28991649 964.70796075 131.03617655 938 192 C937.60522461 192.90476074 937.21044922 193.80952148 936.80371094 194.74169922 C914.69479553 245.00533184 884.96347887 290.8849908 847.6171875 331.1640625 C845.21231237 333.76994211 842.85209493 336.40906907 840.5 339.0625 C833.78481297 346.53449701 826.72700569 353.67529962 819.08203125 360.19921875 C816.56846422 362.37324202 814.13223771 364.62390488 811.6875 366.875 C806.79218884 371.32893064 801.79055225 375.59318605 796.60986328 379.71142578 C794.8826738 381.09391078 793.17473048 382.49852811 791.46484375 383.90234375 C770.32494662 401.01385218 746.972645 416.18695427 723 429 C721.65349365 429.72872314 721.65349365 429.72872314 720.27978516 430.47216797 C631.4704746 478.41782759 529.64672415 497.31388202 347.19726562 468.90396118 C324.12645881 461.94027315 301.75364583 453.3842334 280 443 C278.83742676 442.44554199 277.67485352 441.89108398 276.47705078 441.31982422 C244.37423564 425.88485692 213.79950581 407.33717484 186 385 C185.00484375 384.20464844 184.0096875 383.40929688 182.984375 382.58984375 C180.30201095 380.41712887 177.64734379 378.21520385 175 376 C173.9996875 375.17371094 172.999375 374.34742188 171.96875 373.49609375 C159.72273465 363.32427308 148.27571368 352.35483303 137 341.125 C136.21093262 340.34060547 135.42186523 339.55621094 134.60888672 338.74804688 C129.86665849 333.99271021 125.3702787 329.09713604 121 324 C119.94294585 322.79682271 118.88437877 321.59497275 117.82421875 320.39453125 C110.88712499 312.49213435 104.24703787 304.46482711 98 296 C97.4946875 295.31534668 96.989375 294.63069336 96.46875 293.92529297 C67.31551196 254.26883005 43.66783891 211.3927595 27 165 C26.64599121 164.01644531 26.29198242 163.03289062 25.92724609 162.01953125 C7.09486498 109.06616305 0 56.08691693 0 0 Z " fill="#000000" transform="translate(1013,1510)"/>
<path d="M0 0 C39.63805542 0 39.63805542 0 53.0625 1.625 C54.64501306 1.8043377 56.2275328 1.98361651 57.81005859 2.1628418 C131.95049786 10.81956467 204.72181956 36.68843022 267 78 C267.67933594 78.45052734 268.35867188 78.90105469 269.05859375 79.36523438 C284.42597767 89.62513495 299.48053975 100.44012293 313.39794922 112.60839844 C315.13956443 114.12123092 316.89798791 115.61273076 318.66015625 117.1015625 C324.10732488 121.71180194 329.48390776 126.29455892 334.44140625 131.4375 C336.15932171 133.15972101 337.96415643 134.73134273 339.8125 136.3125 C346.74812174 142.30724282 353.14220627 148.85203297 359.09765625 155.81640625 C361.006658 158.00764234 362.96948855 160.14285901 364.94677734 162.27246094 C370.55623581 168.32108726 375.86452912 174.54003267 381 181 C381.98955022 182.21226661 382.97913591 183.42450428 383.96875 184.63671875 C391.62308797 194.13253844 398.55378857 204.04541029 405.3125 214.1875 C405.72843414 214.81008698 406.14436829 215.43267395 406.57290649 216.0741272 C456.33630466 290.7370555 485.08030492 377.51529157 489 475 C489.02191406 475.95132812 489.04382812 476.90265625 489.06640625 477.8828125 C490.06836942 529.58411191 483.16465019 581.54827974 468 631 C467.63036133 632.20785156 467.26072266 633.41570313 466.87988281 634.66015625 C449.88290522 689.40740668 423.18717015 740.71855697 388 786 C387.09082449 787.18595164 386.18196818 788.37214805 385.2734375 789.55859375 C371.75987299 807.09555922 356.73311516 823.32009982 341.125 839 C340.43567383 839.69399902 339.74634766 840.38799805 339.03613281 841.10302734 C334.51962007 845.6054056 329.83152985 849.84012879 325 854 C323.84355766 855.02174856 322.68856154 856.04513679 321.53515625 857.0703125 C312.99611843 864.60547602 304.17539196 871.65922242 295.04931641 878.46972656 C293.12456209 879.90698652 291.20831525 881.3549302 289.29296875 882.8046875 C205.50253039 945.75817004 103.95450026 976 0 976 C0 653.92 0 331.84 0 0 Z " fill="#000000" transform="translate(1501,45)"/>
<path d="M0 0 C0 322.08 0 644.16 0 976 C-31.14336847 976 -31.14336847 976 -41.3125 974.75 C-42.50157959 974.61360107 -43.69065918 974.47720215 -44.91577148 974.33666992 C-47.38683275 974.0485387 -49.85700069 973.75263349 -52.32617188 973.44873047 C-55.95982337 973.00490727 -59.59625954 972.59678784 -63.234375 972.19140625 C-91.30253461 968.91412699 -119.116741 962.71375914 -146 954 C-147.03737305 953.66387695 -148.07474609 953.32775391 -149.14355469 952.98144531 C-192.34472104 938.81436616 -234.59362979 918.99263161 -272 893 C-272.64001953 892.55688477 -273.28003906 892.11376953 -273.93945312 891.65722656 C-290.23227358 880.35493174 -306.01408767 868.46421779 -320.6875 855.09765625 C-322.66384372 853.30492554 -324.6645673 851.55204773 -326.6875 849.8125 C-330.72531561 846.29383211 -334.64411891 842.65035942 -338.5625 839 C-339.18793701 838.41839111 -339.81337402 837.83678223 -340.45776367 837.23754883 C-346.5988528 831.49656218 -352.51720144 825.65354476 -358 819.27734375 C-359.9102326 817.10221562 -361.87379048 814.9850036 -363.85253906 812.87231445 C-369.84377479 806.45298379 -375.28984543 799.71495991 -380.63818359 792.75585938 C-381.95604387 791.05667488 -383.29497111 789.3771996 -384.64453125 787.703125 C-396.04491643 773.52497035 -406.29391246 758.57782336 -415.64990234 742.97827148 C-418.09884003 738.92164935 -420.56132964 735.35511129 -423.67993164 731.77539062 C-426.9428395 727.38703 -429.22008057 722.29883117 -431.6875 717.4375 C-432.31007183 716.21940599 -432.9327951 715.00138937 -433.55566406 713.78344727 C-435.38488221 710.19614624 -437.19385932 706.59897456 -439 703 C-439.48227051 702.04480469 -439.96454102 701.08960938 -440.46142578 700.10546875 C-447.65048325 685.78569364 -453.56316953 671.06609425 -459 656 C-459.41781738 654.84387207 -459.83563477 653.68774414 -460.26611328 652.49658203 C-474.99177348 611.24320307 -483.44996718 568.62580174 -487 525 C-487.07057617 524.16968262 -487.14115234 523.33936523 -487.21386719 522.48388672 C-494.91947897 427.75378633 -471.97244809 329.71089312 -392 196 C-391.55172852 195.39865234 -391.10345703 194.79730469 -390.64160156 194.17773438 C-384.40994614 185.84684605 -377.79302916 177.8744542 -371 170 C-370.04287109 168.89011719 -370.04287109 168.89011719 -369.06640625 167.7578125 C-367.38878335 165.82835244 -365.69524303 163.9139914 -364 162 C-363.40251953 161.3184082 -362.80503906 160.63681641 -362.18945312 159.93457031 C-356.01913263 152.97295511 -349.53917983 146.35299996 -342.96240234 139.77709961 C-341.12957731 137.94208278 -339.3049299 136.0991875 -337.48046875 134.25585938 C-331.34850817 128.09526606 -325.17176538 122.24752359 -318.33691406 116.86328125 C-316.01403513 115.01119057 -313.81520998 113.06875881 -311.625 111.0625 C-306.01274874 106.03423961 -300.03951698 101.49618858 -294 97 C-293.33323242 96.50338867 -292.66646484 96.00677734 -291.97949219 95.49511719 C-267.34837427 77.24098773 -241.34595555 61.81252209 -214 48 C-213.13681152 47.56300781 -212.27362305 47.12601563 -211.38427734 46.67578125 C-168.73016348 25.26224658 -122.04267956 11.55726463 -75 4 C-74.01773437 3.84160645 -73.03546875 3.68321289 -72.0234375 3.52001953 C-48.03867271 -0.23366081 -24.28285811 0 0 0 Z " fill="#000000" transform="translate(523,1023)"/>
<path d="M0 0 C0.8203775 0.04451294 1.640755 0.08902588 2.48599243 0.1348877 C94.98615334 5.23837564 184.90919901 35.10484429 260.5 89.1875 C261.30695312 89.76387207 262.11390625 90.34024414 262.9453125 90.93408203 C272.11405123 97.51423289 281.05295351 104.2617374 289.57421875 111.6640625 C292.43833734 114.13431699 295.36165224 116.50947772 298.3125 118.875 C302.33733644 122.14736702 306.01835025 125.59297349 309.62890625 129.3125 C311.39498724 131.082268 313.21674796 132.6987562 315.125 134.3125 C323.58166735 141.59695604 331.60605236 149.70103192 338.8125 158.22265625 C340.89470655 160.6470773 343.07502207 162.97100032 345.25 165.3125 C350.53209453 171.10602275 355.33738178 177.20949502 360.12207031 183.41552734 C361.44778028 185.12034714 362.79311971 186.80694372 364.1484375 188.48828125 C396.45373773 228.67509921 420.82520446 274.89818188 438.5 323.1875 C439.07935932 324.74221275 439.65877992 326.29690267 440.23828125 327.8515625 C444.2615828 338.7905454 447.4837633 349.93418832 450.5 361.1875 C450.77457031 362.18571777 451.04914062 363.18393555 451.33203125 364.21240234 C455.76813331 380.51102617 458.76517291 396.87927761 461.3125 413.5625 C461.45952362 414.51502655 461.60654724 415.4675531 461.75802612 416.44894409 C465.38483227 440.16283387 466.5 462.98822989 466.5 487.1875 C144.09 487.1875 -178.32 487.1875 -510.5 487.1875 C-510.5 459.80224108 -510.5 459.80224108 -509.375 447.0625 C-509.31097992 446.31591125 -509.24695984 445.56932251 -509.18099976 444.80010986 C-501.00340635 351.15043267 -465.53421556 259.32494147 -398.5 176.1875 C-397.5766444 175.06785553 -396.65346004 173.94806981 -395.73046875 172.828125 C-385.35770731 160.320575 -374.08842777 148.69299172 -362.625 137.1875 C-361.74537598 136.30320313 -360.86575195 135.41890625 -359.95947266 134.5078125 C-354.9661048 129.52674591 -349.8606558 124.76871327 -344.5 120.1875 C-343.45162757 119.26211034 -342.40467491 118.33510891 -341.359375 117.40625 C-331.50736958 108.75101062 -321.07326853 100.93486661 -310.5 93.1875 C-309.51700928 92.46385254 -309.51700928 92.46385254 -308.51416016 91.72558594 C-237.59204937 39.64066372 -152.25184409 8.42870143 -57.5 0.1875 C-56.67290527 0.13110352 -55.84581055 0.07470703 -54.99365234 0.01660156 C-52.45468225 -0.14808312 -49.91543565 -0.29731746 -47.375 -0.4375 C-46.30318481 -0.4979248 -46.30318481 -0.4979248 -45.2097168 -0.55957031 C-30.14029353 -1.26965654 -15.0532829 -0.82780763 0 0 Z " fill="#000000" transform="translate(542.5,44.8125)"/>
<path d="M0 0 C0.33 0 0.66 0 1 0 C1.07516846 1.1559668 1.15033691 2.31193359 1.2277832 3.50292969 C2.09014773 16.67319725 3.01352322 29.83843803 4 43 C4.05329468 43.71845093 4.10658936 44.43690186 4.16149902 45.17712402 C6.39556387 74.94412505 11.9530353 105.52031742 21 134 C21.19744812 134.62612183 21.39489624 135.25224365 21.59832764 135.89733887 C41.51296098 198.97683266 70.700489 256.57692403 112.5 308.125 C112.97260254 308.70846191 113.44520508 309.29192383 113.93212891 309.89306641 C115.60713951 311.94091806 117.3021548 313.97102832 119 316 C119.83305664 317.00587158 120.66611328 318.01174316 121.52441406 319.0480957 C128.82670862 327.77886982 136.62727699 335.90805794 144.71044922 343.91625977 C146.76728007 345.95462493 148.81578617 348.00108947 150.86328125 350.04882812 C152.19483906 351.37547536 153.52685399 352.70166398 154.859375 354.02734375 C155.75810333 354.92440285 155.75810333 354.92440285 156.67498779 355.83958435 C160.96207769 360.07962335 165.4315919 364.06640123 170 368 C170.96421875 368.845625 171.9284375 369.69125 172.921875 370.5625 C182.57091789 378.87880216 192.71602292 386.48955688 203 394 C204.21284668 394.88824463 204.21284668 394.88824463 205.45019531 395.79443359 C243.94548107 423.82444951 287.01526855 445.53735003 332 461 C333.05380859 461.36319336 334.10761719 461.72638672 335.19335938 462.10058594 C349.51894222 466.9833031 363.95085981 470.99677485 378.72509766 474.2734375 C380.94270926 474.76543184 383.15850251 475.26568235 385.37255859 475.7734375 C399.80811589 479.07346022 414.1757865 481.60826102 428.875 483.3125 C429.57503143 483.39381165 430.27506287 483.47512329 430.99630737 483.55889893 C440.6488029 484.66183796 450.30301643 485.43046139 460 486 C460 486.33 460 486.66 460 487 C459.1403363 487.0960981 459.1403363 487.0960981 458.26330566 487.19413757 C452.15928731 487.8787789 446.05726581 488.57960665 439.95605469 489.28881836 C437.69543835 489.54959729 435.43438103 489.80658847 433.17285156 490.05932617 C418.15073211 491.74145575 403.46006037 494.07972952 388.7093811 497.39356995 C384.99510799 498.224921 381.27348418 499.02101781 377.55172729 499.81808472 C336.65720718 508.74332657 296.90158944 524.30166931 260 544 C258.72261963 544.67603271 258.72261963 544.67603271 257.41943359 545.36572266 C234.14820654 557.78521354 211.6497439 572.57406735 191 589 C190.34966797 589.51578613 189.69933594 590.03157227 189.02929688 590.56298828 C171.65306775 604.28215751 171.65306775 604.28215751 155.55859375 619.4375 C153.84067829 621.15972101 152.03584357 622.73134273 150.1875 624.3125 C143.22588439 630.32971039 136.80275862 636.90085966 130.828125 643.89453125 C128.6897913 646.35727028 126.46915401 648.73487343 124.25 651.125 C119.49079943 656.34430455 115.12809934 661.799376 110.81640625 667.390625 C109.03652988 669.6934895 107.22028433 671.95047921 105.33984375 674.171875 C51.38535343 738.41442025 17.39591707 824.2748 6 909 C5.81953125 910.26328125 5.6390625 911.5265625 5.453125 912.828125 C3.52773596 927.47275074 2.86878922 942.26270892 2 957 C1.67 957 1.34 957 1 957 C0.89510254 955.58412598 0.89510254 955.58412598 0.78808594 954.13964844 C-6.51497242 856.69949171 -36.21125769 764.31477205 -120.875 654.34375 C-122.82494724 652.19307289 -124.73026129 650.01175029 -126.625 647.8125 C-129.37598891 644.64949662 -132.27695689 641.69874424 -135.26953125 638.765625 C-137.00602272 636.99385492 -138.59283626 635.14969627 -140.1875 633.25 C-144.52151471 628.23065112 -149.45803635 623.89350543 -154.38085938 619.47070312 C-155.99584848 618.00377092 -157.58675722 616.51474379 -159.171875 615.015625 C-165.5974263 608.95207659 -172.20677757 603.30791428 -179.21948242 597.93432617 C-181.64842575 596.06167743 -184.04805731 594.16092214 -186.42114258 592.21801758 C-195.22840599 585.01324463 -204.31681247 578.45112058 -213.8125 572.1875 C-214.87840866 571.48090744 -214.87840866 571.48090744 -215.96585083 570.76004028 C-260.04975634 541.58245516 -307.28768908 520.70983371 -358 506 C-359.44125244 505.58041016 -359.44125244 505.58041016 -360.91162109 505.15234375 C-377.0605476 500.51998236 -393.41739634 497.61091378 -410 495 C-411.09618652 494.8254126 -412.19237305 494.6508252 -413.32177734 494.47094727 C-420.65757656 493.31874182 -428.00181736 492.31800996 -435.375 491.4375 C-436.45193115 491.30819092 -437.5288623 491.17888184 -438.63842773 491.0456543 C-446.75087983 490.09493355 -454.84087699 489.38473913 -463 489 C-463 488.67 -463 488.34 -463 488 C-461.96222412 487.91548584 -460.92444824 487.83097168 -459.85522461 487.74389648 C-372.77609898 480.51757237 -289.79495425 454.64107126 -185 382 C-184.43345703 381.55124512 -183.86691406 381.10249023 -183.28320312 380.64013672 C-180.14433904 378.14459838 -177.06297407 375.58784405 -174 373 C-173.46890625 372.55769043 -172.9378125 372.11538086 -172.390625 371.65966797 C-165.82216532 366.1878008 -159.42716676 360.60524411 -153.375 354.5625 C-152.89039307 354.07869873 -152.40578613 353.59489746 -151.90649414 353.09643555 C-149.76985481 350.92585137 -147.78026204 348.72390858 -145.8828125 346.33984375 C-144.19272876 344.23951147 -142.58610971 342.68352714 -140.5 341 C-134.48142252 335.83962709 -129.26360489 329.90940556 -124 324 C-123.5045166 323.44393066 -123.0090332 322.88786133 -122.49853516 322.31494141 C-92.79557249 288.76795055 -69.07503583 250.92701571 -49 211 C-48.57235352 210.15937012 -48.14470703 209.31874023 -47.70410156 208.45263672 C-36.05641331 185.45504269 -27.22379356 160.70806329 -20 136 C-19.66516602 134.85805176 -19.33033203 133.71610352 -18.98535156 132.53955078 C-6.58679186 89.64519096 -0.28308238 44.6493072 0 0 Z " fill="#000000" transform="translate(1011,534)"/>
<path d="M0 0 C0.33 0 0.66 0 1 0 C2.11962642 79.39586751 -10.60117908 154.33824968 -44 227 C-44.74649756 228.65737026 -45.49261445 230.31491205 -46.23828125 231.97265625 C-62.50477736 267.67074022 -84.76425888 302.4780387 -110.5078125 332.109375 C-112.80530826 334.77418199 -115.00096212 337.49413717 -117.1875 340.25 C-126.38071411 351.5169942 -136.75055953 361.82789827 -147 372.125 C-147.68126953 372.81094238 -148.36253906 373.49688477 -149.06445312 374.20361328 C-153.54714883 378.67206778 -158.2055086 382.87050007 -163 387 C-164.15642381 388.02176953 -165.31142021 389.04515732 -166.46484375 390.0703125 C-175.64641239 398.17331942 -185.17014711 405.70127925 -195 413 C-196.06492676 413.79639893 -196.06492676 413.79639893 -197.15136719 414.60888672 C-219.89770602 431.5732197 -244.22641365 446.64352069 -269.81494141 458.93994141 C-272.22492133 460.10911826 -274.61779922 461.31001721 -277.01171875 462.51171875 C-331.98544765 489.81828478 -392.04100829 504.03001211 -453 509 C-453.86915039 509.07202637 -454.73830078 509.14405273 -455.63378906 509.21826172 C-538.00208687 515.69030179 -623.49919011 498.82165076 -796 401 C-797.06721955 400.10618689 -798.13495443 399.21298885 -799.203125 398.3203125 C-805.1112306 393.36902003 -810.93233527 388.33896789 -816.6328125 383.1484375 C-818.15704686 381.76505648 -819.69274506 380.39414979 -821.2421875 379.0390625 C-826.93028593 374.04043055 -832.32441773 368.78152945 -837.6875 363.4375 C-838.40043213 362.72916016 -839.11336426 362.02082031 -839.84790039 361.29101562 C-843.88255436 357.24464255 -847.7393949 353.09894169 -851.4699707 348.77075195 C-853.35001415 346.59491741 -855.29904135 344.48725838 -857.25 342.375 C-862.34835728 336.72266163 -867.00842754 330.76543138 -871.65332031 324.74072266 C-872.90267866 323.12579789 -874.16562873 321.52141307 -875.4296875 319.91796875 C-885.82039835 306.64851998 -895.39900782 292.80139653 -904.3125 278.5 C-904.86977783 277.60990234 -905.42705566 276.71980469 -906.0012207 275.80273438 C-906.51257568 274.97064453 -907.02393066 274.13855469 -907.55078125 273.28125 C-908.00106689 272.54970703 -908.45135254 271.81816406 -908.9152832 271.06445312 C-909.98044265 269.03722191 -910.5519686 267.23731938 -911 265 C-908.60286247 267.21984878 -906.96079473 269.49026595 -905.28515625 272.2890625 C-904.77009521 273.13960205 -904.25503418 273.9901416 -903.72436523 274.86645508 C-903.17594971 275.7767749 -902.62753418 276.68709473 -902.0625 277.625 C-896.09619208 287.38766924 -889.76143357 296.77401502 -883 306 C-882.25169922 307.02649658 -882.25169922 307.02649658 -881.48828125 308.07373047 C-875.47577128 316.29842678 -869.24451808 324.2584893 -862.58984375 331.97265625 C-860.12447588 334.85449652 -857.74446981 337.78918938 -855.375 340.75 C-851.86015677 345.07451247 -848.10658506 349.00085227 -844.1171875 352.88671875 C-842.14350902 354.85675576 -840.31272114 356.88237415 -838.5 359 C-832.88625179 365.52128257 -826.74783238 371.46614367 -820.21875 377.0625 C-818.01656128 378.98553803 -815.86784957 380.95987838 -813.7253418 382.94897461 C-807.67945289 388.55526721 -801.46667009 393.88078941 -795 399 C-794.34757324 399.51965332 -793.69514648 400.03930664 -793.02294922 400.57470703 C-782.63281742 408.83352974 -772.05578863 416.65777327 -761 424 C-760.36368652 424.42812988 -759.72737305 424.85625977 -759.07177734 425.29736328 C-708.84421232 459.0485633 -652.86893655 482.41116718 -594 496 C-592.59186035 496.32846924 -592.59186035 496.32846924 -591.15527344 496.66357422 C-576.96930739 499.90909918 -562.6777728 501.95410394 -548.25 503.75 C-547.39092041 503.85700226 -546.53184082 503.96400452 -545.64672852 504.07424927 C-543.14528797 504.38279977 -540.64320515 504.68521769 -538.140625 504.984375 C-537.41212341 505.07269089 -536.68362183 505.16100677 -535.93304443 505.2519989 C-520.31140845 507.07640201 -504.73028588 507.41739682 -489 508 C-489 346.3 -489 184.6 -489 18 C-327.63 18 -166.26 18 0 18 C0 12.06 0 6.12 0 0 Z " fill="#48C4D3" transform="translate(1012,1491)"/>
<path d="M0 0 C113.38924689 5.66946234 216.21518555 36.04307379 314 114 C314.78141357 114.65403809 314.78141357 114.65403809 315.57861328 115.32128906 C328.06955821 125.79897473 339.94476467 136.87631558 351.5 148.375 C352.14630371 149.01663086 352.79260742 149.65826172 353.45849609 150.31933594 C357.27859513 154.15229726 360.90490647 158.10490028 364.44140625 162.20068359 C366.33288212 164.3842953 368.28996489 166.50291475 370.25 168.625 C375.34469623 174.27327953 380.00263183 180.22592727 384.64453125 186.24609375 C385.92216343 187.89928351 387.20934159 189.54447136 388.5 191.1875 C442.75135905 260.74052442 476.27705434 344.68844309 490 503 C489.67 503 489.34 503 489 503 C489 498.71 489 494.42 489 490 C327.63 490 166.26 490 0 490 C0 328.3 0 166.6 0 0 Z " fill="#47C3D2" transform="translate(1500,1020)"/>
<path d="M0 0 C0 0.33 0 0.66 0 1 C-4.29 1 -8.58 1 -13 1 C-13 162.04 -13 323.08 -13 489 C-174.04 489 -335.08 489 -501 489 C-501 493.95 -501 498.9 -501 504 C-501.33 504 -501.66 504 -502 504 C-503.38271756 416.15134423 -484.67811338 331.8595112 -408 200 C-407.54061035 199.37077637 -407.0812207 198.74155273 -406.60791016 198.09326172 C-397.49650556 185.61942353 -387.6650367 173.93119311 -377.27246094 162.50756836 C-375.83410265 160.9203984 -374.40281923 159.32676319 -372.98144531 157.72436523 C-367.33837938 151.37295089 -361.45734935 145.30619504 -355.4375 139.3125 C-354.54353516 138.41466797 -353.64957031 137.51683594 -352.72851562 136.59179688 C-347.64723412 131.51794958 -342.46397297 126.65722174 -337 122 C-335.91681332 121.05079607 -334.8347322 120.10032864 -333.75390625 119.1484375 C-324.80965121 111.34742265 -315.50049471 104.10807509 -306 97 C-305.3591748 96.51644043 -304.71834961 96.03288086 -304.05810547 95.53466797 C-294.33826452 88.20491034 -284.32317461 81.45002856 -274 75 C-273.25186035 74.52981445 -272.5037207 74.05962891 -271.73291016 73.57519531 C-257.26523985 64.53022217 -242.24256933 56.651445 -227 49 C-226.06510742 48.52788086 -225.13021484 48.05576172 -224.16699219 47.56933594 C-155.08877564 12.88987665 -76.83271998 -1.24744019 0 0 Z " fill="#47C3D2" transform="translate(1514,44)"/>
<path d="M0 0 C19.56643273 0 38.64594514 0.68185532 58.0625 2.875 C58.79449615 2.95609009 59.52649231 3.03718018 60.28067017 3.12072754 C69.19136563 4.1190477 77.911721 5.47151909 86.69165039 7.3125 C89.38835105 7.87289474 92.07523183 8.37419821 94.79296875 8.81640625 C176.21782578 22.38108067 253.04721267 62.62951894 316 115 C316.62712891 115.52126465 317.25425781 116.0425293 317.90039062 116.57958984 C324.83877869 122.37187244 331.46655377 128.30253569 337.78125 134.78125 C339.74304335 136.74304335 341.74839316 138.53451723 343.875 140.3125 C349.17316022 144.85530002 353.74527071 150.10660115 358.42236328 155.26953125 C359.97575193 156.97340292 361.54480851 158.66105932 363.12109375 160.34375 C369.36747064 167.0170518 375.32729287 173.82542782 381 181 C381.49161621 181.61375488 381.98323242 182.22750977 382.48974609 182.85986328 C438.62995001 253.01391079 474.28485648 337.05799467 486 426 C486.24556641 427.82990479 486.24556641 427.82990479 486.49609375 429.69677734 C489.01228332 449.00749252 489 467.34165248 489 487 C327.63 487 166.26 487 0 487 C0 326.29 0 165.58 0 0 Z " fill="#FEFEFE" transform="translate(523,1022)"/>
<path d="M0 0 C0.33 0 0.66 0 1 0 C1.1451001 1.04937744 1.2902002 2.09875488 1.43969727 3.17993164 C15.36093975 103.07579239 53.65220926 193.07637747 119.625 269.75 C120.15158203 270.36439941 120.67816406 270.97879883 121.22070312 271.61181641 C124.48705265 275.38154171 127.89614817 278.94373417 131.44677734 282.44628906 C133.22445131 284.22452187 134.87758286 286.07958787 136.5 288 C141.49258774 293.77094217 146.86516637 298.95127957 152.64453125 303.92578125 C155.01591717 306.01401661 157.3282377 308.15445761 159.63696289 310.3112793 C165.89052431 316.1475114 172.29333997 321.68416132 179 327 C180.21112148 327.98805578 181.42204543 328.9763537 182.6328125 329.96484375 C192.12933306 337.62129909 202.04387309 344.55276418 212.1875 351.3125 C212.81008698 351.72843414 213.43267395 352.14436829 214.0741272 352.57290649 C246.87859073 374.43732593 281.94496633 392.49705987 319 406 C319.62801514 406.22945312 320.25603027 406.45890625 320.90307617 406.6953125 C343.51886469 414.9306736 366.44935386 421.07051504 390 426 C391.26247559 426.26538574 392.52495117 426.53077148 393.82568359 426.80419922 C463.68552526 440.99073775 538.20426724 438.24957932 607 420 C608.12647949 419.71237793 609.25295898 419.42475586 610.41357422 419.12841797 C620.20561521 416.59405302 629.78913419 413.59272976 639.375 410.375 C640.16057281 410.1116687 640.94614563 409.8483374 641.75552368 409.57702637 C674.97270247 398.40601633 707.03655942 384.26887501 737 366 C737.8053418 365.51080078 738.61068359 365.02160156 739.44042969 364.51757812 C761.22069359 351.20885906 781.91954966 336.21553105 801.21289062 319.49975586 C802.53388948 318.39116352 803.88055953 317.31299851 805.24023438 316.25219727 C813.61364592 309.65474913 821.04733881 302.22285678 828.54443359 294.66137695 C830.75432432 292.43313978 832.97220288 290.21309932 835.19140625 287.99414062 C836.62286938 286.55776344 838.05387493 285.12093006 839.484375 283.68359375 C840.46117218 282.70512733 840.46117218 282.70512733 841.45770264 281.70689392 C845.82734051 277.29262693 849.95708459 272.71427552 854 268 C854.46475235 267.46288391 854.9295047 266.92576782 855.40834045 266.37237549 C887.26462759 229.47626064 913.17405205 187.49658243 933 143 C934.34378759 147.03136277 932.83840868 149.1035412 931.0546875 152.703125 C930.733862 153.36859848 930.4130365 154.03407196 930.08248901 154.7197113 C929.0249588 156.90237085 927.95142766 159.07660375 926.875 161.25 C926.50797974 161.99673981 926.14095947 162.74347961 925.76281738 163.5128479 C911.04787698 193.42775302 893.64136897 221.77988266 873 248 C872.30261719 248.89589844 871.60523438 249.79179688 870.88671875 250.71484375 C862.86949866 260.88498466 854.41970138 270.67029284 845.6171875 280.1640625 C843.21231237 282.76994211 840.85209493 285.40906907 838.5 288.0625 C831.78481297 295.53449701 824.72700569 302.67529962 817.08203125 309.19921875 C814.56846422 311.37324202 812.13223771 313.62390488 809.6875 315.875 C804.79218884 320.32893064 799.79055225 324.59318605 794.60986328 328.71142578 C792.8826738 330.09391078 791.17473048 331.49852811 789.46484375 332.90234375 C768.32494662 350.01385218 744.972645 365.18695427 721 378 C719.65349365 378.72872314 719.65349365 378.72872314 718.27978516 379.47216797 C629.4704746 427.41782759 527.64672415 446.31388202 345.19726562 417.90396118 C322.12645881 410.94027315 299.75364583 402.3842334 278 392 C276.83742676 391.44554199 275.67485352 390.89108398 274.47705078 390.31982422 C242.37423564 374.88485692 211.79950581 356.33717484 184 334 C183.00484375 333.20464844 182.0096875 332.40929688 180.984375 331.58984375 C178.30201095 329.41712887 175.64734379 327.21520385 173 325 C171.9996875 324.17371094 170.999375 323.34742188 169.96875 322.49609375 C157.72273465 312.32427308 146.27571368 301.35483303 135 290.125 C134.21093262 289.34060547 133.42186523 288.55621094 132.60888672 287.74804688 C127.86665849 282.99271021 123.3702787 278.09713604 119 273 C117.94294585 271.79682271 116.88437877 270.59497275 115.82421875 269.39453125 C108.88712499 261.49213435 102.24703787 253.46482711 96 245 C95.4946875 244.31534668 94.989375 243.63069336 94.46875 242.92529297 C65.31551196 203.26883005 41.66783891 160.3927595 25 114 C24.64599121 113.01644531 24.29198242 112.03289062 23.92724609 111.01953125 C13.07591467 80.50748156 5.83401058 49.07163087 1.125 17.0625 C1.00471436 16.2470874 0.88442871 15.4316748 0.76049805 14.59155273 C0.08988826 9.68430976 -0.10141935 4.95264482 0 0 Z " fill="#4CAEBA" transform="translate(1015,1561)"/>
<path d="M0 0 C5.89726765 1.60040981 10.7963536 4.58164668 16 7.6875 C16.96333252 8.26056885 17.92666504 8.8336377 18.91918945 9.42407227 C40.46629994 22.39782982 61.44839224 37.04041354 80.39794922 53.60839844 C82.13956443 55.12123092 83.89798791 56.61273076 85.66015625 58.1015625 C91.10732488 62.71180194 96.48390776 67.29455892 101.44140625 72.4375 C103.15932171 74.15972101 104.96415643 75.73134273 106.8125 77.3125 C113.74812174 83.30724282 120.14220627 89.85203297 126.09765625 96.81640625 C128.006658 99.00764234 129.96948855 101.14285901 131.94677734 103.27246094 C137.55623581 109.32108726 142.86452912 115.54003267 148 122 C148.98955022 123.21226661 149.97913591 124.42450428 150.96875 125.63671875 C158.62308797 135.13253844 165.55378857 145.04541029 172.3125 155.1875 C172.72843414 155.81008698 173.14436829 156.43267395 173.57290649 157.0741272 C223.33630466 231.7370555 252.08030492 318.51529157 256 416 C256.02191406 416.95132812 256.04382812 417.90265625 256.06640625 418.8828125 C257.06836942 470.58411191 250.16465019 522.54827974 235 572 C234.63036133 573.20785156 234.26072266 574.41570313 233.87988281 575.66015625 C216.88290522 630.40740668 190.18717015 681.71855697 155 727 C154.09082449 728.18595164 153.18196818 729.37214805 152.2734375 730.55859375 C138.75987299 748.09555922 123.73311516 764.32009982 108.125 780 C107.43567383 780.69399902 106.74634766 781.38799805 106.03613281 782.10302734 C101.51962007 786.6054056 96.83152985 790.84012879 92 795 C90.84355766 796.02174856 89.68856154 797.04513679 88.53515625 798.0703125 C79.99611843 805.60547602 71.17539196 812.65922242 62.04931641 819.46972656 C60.12456209 820.90698652 58.20831525 822.3549302 56.29296875 823.8046875 C6.84402986 860.956694 -50.30527359 886.85059537 -109.8125 903.0625 C-110.58916016 903.2788208 -111.36582031 903.4951416 -112.16601562 903.71801758 C-115.85350582 904.68353152 -118.36216393 905.11898694 -122 904 C-121.09161377 903.74943848 -120.18322754 903.49887695 -119.24731445 903.24072266 C-50.7265364 884.27688231 13.44656252 856.07165682 69 811 C70.45986328 809.83017578 70.45986328 809.83017578 71.94921875 808.63671875 C77.25094568 804.35540788 82.3884216 799.93387727 87.41796875 795.3359375 C89.52523966 793.42951087 91.6528069 791.55591572 93.796875 789.69140625 C97.95786637 786.05765878 102.02555768 782.33318424 106.0625 778.5625 C106.73087891 777.94568359 107.39925781 777.32886719 108.08789062 776.69335938 C112.12210135 772.92574372 115.84870268 769.01909493 119.41821289 764.80761719 C120.99441426 763.00638321 122.64795618 761.34346444 124.375 759.6875 C128.16168873 755.96858199 131.42663779 751.88174761 134.75 747.75 C136.74997426 745.30558702 138.81019476 742.95817349 140.9375 740.625 C180.51834226 696.44717016 209.4088902 639.837492 228 584 C228.35545898 582.93491211 228.71091797 581.86982422 229.07714844 580.77246094 C247.34545678 525.35001563 254.3314546 468.19894169 253 410 C252.97776367 408.86256348 252.95552734 407.72512695 252.93261719 406.55322266 C250.84560735 312.7779523 215.4799854 219.33616484 142 119 C141.13096145 117.95748863 140.26250152 116.91449472 139.39453125 115.87109375 C129.53373925 104.08097881 119.10410967 92.91727704 108.23876953 82.0534668 C106.49611683 80.30861192 104.76166837 78.55586257 103.02734375 76.80273438 C97.05332284 70.79948242 91.01379752 65.13713508 84.35888672 59.88525391 C82.03029401 58.02421138 79.82273429 56.07542784 77.625 54.0625 C72.01274874 49.03423961 66.03951698 44.49618858 60 40 C59.33323242 39.50338867 58.66646484 39.00677734 57.97949219 38.49511719 C41.54947818 26.31882849 24.511567 15.27890538 6.80566406 5.04882812 C5.91588867 4.53255859 5.02611328 4.01628906 4.109375 3.484375 C2.91779785 2.79939941 2.91779785 2.79939941 1.70214844 2.10058594 C1.14043945 1.73739258 0.57873047 1.37419922 0 1 C0 0.67 0 0.34 0 0 Z " fill="#43B7C4" transform="translate(1734,104)"/>
<path d="M0 0 C3.95831644 -0.02989665 7.91660278 -0.04708911 11.875 -0.0625 C12.96425781 -0.07087891 14.05351563 -0.07925781 15.17578125 -0.08789062 C24.85742054 -0.11587224 34.2785684 0.45992047 44 1 C44 162.7 44 324.4 44 491 C-116.71 491 -277.42 491 -443 491 C-443 490.67 -443 490.34 -443 490 C-282.62 490 -122.24 490 43 490 C43 328.96 43 167.92 43 2 C31.78 2.33 20.56 2.66 9 3 C9 2.67 9 2.34 9 2 C6.03 1.67 3.06 1.34 0 1 C0 0.67 0 0.34 0 0 Z " fill="#C4E0E4" transform="translate(1456,1019)"/>
<path d="M0 0 C1.34378759 4.03136277 -0.16159132 6.1035412 -1.9453125 9.703125 C-2.266138 10.36859848 -2.5869635 11.03407196 -2.91751099 11.7197113 C-3.9750412 13.90237085 -5.04857234 16.07660375 -6.125 18.25 C-6.49202026 18.99673981 -6.85904053 19.74347961 -7.23718262 20.5128479 C-21.95212302 50.42775302 -39.35863103 78.77988266 -60 105 C-61.04607422 106.34384766 -61.04607422 106.34384766 -62.11328125 107.71484375 C-70.13050134 117.88498466 -78.58029862 127.67029284 -87.3828125 137.1640625 C-89.78768763 139.76994211 -92.14790507 142.40906907 -94.5 145.0625 C-101.21518703 152.53449701 -108.27299431 159.67529962 -115.91796875 166.19921875 C-118.43153578 168.37324202 -120.86776229 170.62390488 -123.3125 172.875 C-128.20781116 177.32893064 -133.20944775 181.59318605 -138.39013672 185.71142578 C-140.1173262 187.09391078 -141.82526952 188.49852811 -143.53515625 189.90234375 C-164.67505338 207.01385218 -188.027355 222.18695427 -212 235 C-212.8976709 235.48581543 -213.7953418 235.97163086 -214.72021484 236.47216797 C-292.85250733 278.65360454 -386.79945432 302.49529006 -476 294 C-476 293.67 -476 293.34 -476 293 C-475.05423096 292.99120064 -475.05423096 292.99120064 -474.08935547 292.98222351 C-423.77097261 292.49398853 -374.84428551 289.95701967 -326 277 C-324.87352051 276.71237793 -323.74704102 276.42475586 -322.58642578 276.12841797 C-312.79438479 273.59405302 -303.21086581 270.59272976 -293.625 267.375 C-292.83942719 267.1116687 -292.05385437 266.8483374 -291.24447632 266.57702637 C-258.02729753 255.40601633 -225.96344058 241.26887501 -196 223 C-195.1946582 222.51080078 -194.38931641 222.02160156 -193.55957031 221.51757812 C-171.77930641 208.20885906 -151.08045034 193.21553105 -131.78710938 176.49975586 C-130.46611052 175.39116352 -129.11944047 174.31299851 -127.75976562 173.25219727 C-119.38635408 166.65474913 -111.95266119 159.22285678 -104.45556641 151.66137695 C-102.24567568 149.43313978 -100.02779712 147.21309932 -97.80859375 144.99414062 C-96.37713062 143.55776344 -94.94612507 142.12093006 -93.515625 140.68359375 C-92.86442688 140.03128281 -92.21322876 139.37897186 -91.54229736 138.70689392 C-87.17265949 134.29262693 -83.04291541 129.71427552 -79 125 C-78.53524765 124.46288391 -78.0704953 123.92576782 -77.59165955 123.37237549 C-45.73537241 86.47626064 -19.82594795 44.49658243 0 0 Z " fill="#42B6C3" transform="translate(1948,1704)"/>
<path d="M0 0 C2.39713753 2.21984878 4.03920527 4.49026595 5.71484375 7.2890625 C6.22990479 8.13960205 6.74496582 8.9901416 7.27563477 9.86645508 C7.82405029 10.7767749 8.37246582 11.68709473 8.9375 12.625 C14.90380792 22.38766924 21.23856643 31.77401502 28 41 C28.49886719 41.68433105 28.99773437 42.36866211 29.51171875 43.07373047 C35.52422872 51.29842678 41.75548192 59.2584893 48.41015625 66.97265625 C50.87552412 69.85449652 53.25553019 72.78918938 55.625 75.75 C59.13984323 80.07451247 62.89341494 84.00085227 66.8828125 87.88671875 C68.85649098 89.85675576 70.68727886 91.88237415 72.5 94 C78.11374821 100.52128257 84.25216762 106.46614367 90.78125 112.0625 C92.98343872 113.98553803 95.13215043 115.95987838 97.2746582 117.94897461 C103.32054711 123.55526721 109.53332991 128.88078941 116 134 C116.65242676 134.51965332 117.30485352 135.03930664 117.97705078 135.57470703 C128.36718258 143.83352974 138.94421137 151.65777327 150 159 C150.63631348 159.42812988 151.27262695 159.85625977 151.92822266 160.29736328 C218.63987039 205.12530118 294.4674222 230.98982327 374 240 C369.94529322 242.27174289 366.81899509 242.04013709 362.3125 241.5 C361.09373169 241.36005615 361.09373169 241.36005615 359.8503418 241.21728516 C304.13363595 234.30003214 251.14629293 217.00284406 201 192 C200.08621582 191.54512207 199.17243164 191.09024414 198.23095703 190.62158203 C160.3263581 171.61024114 125.68679569 146.6662916 94.3671875 118.1484375 C92.84295314 116.76505648 91.30725494 115.39414979 89.7578125 114.0390625 C84.06971407 109.04043055 78.67558227 103.78152945 73.3125 98.4375 C72.59956787 97.72916016 71.88663574 97.02082031 71.15209961 96.29101562 C67.11744564 92.24464255 63.2606051 88.09894169 59.5300293 83.77075195 C57.64998585 81.59491741 55.70095865 79.48725838 53.75 77.375 C48.65164272 71.72266163 43.99157246 65.76543138 39.34667969 59.74072266 C38.09732134 58.12579789 36.83437127 56.52141307 35.5703125 54.91796875 C25.17960165 41.64851998 15.60099218 27.80139653 6.6875 13.5 C6.13022217 12.60990234 5.57294434 11.71980469 4.9987793 10.80273438 C4.48742432 9.97064453 3.97606934 9.13855469 3.44921875 8.28125 C2.77379028 7.18393555 2.77379028 7.18393555 2.0847168 6.06445312 C1.01955735 4.03722191 0.4480314 2.23731938 0 0 Z " fill="#42B7C5" transform="translate(101,1756)"/>
<path d="M0 0 C0.66 0.33 1.32 0.66 2 1 C-3.76311312 6.98813706 -9.61572334 12.48832811 -16.11328125 17.671875 C-18.5998005 19.677241 -21.02295677 21.73767967 -23.43359375 23.83300781 C-43.75533671 41.40548754 -66.63544284 56.77863659 -90 70 C-90.76860352 70.43699219 -91.53720703 70.87398437 -92.32910156 71.32421875 C-142.21840487 99.52336038 -197.45987947 120.42085641 -254.37228394 128.58587646 C-256.8414876 128.97501872 -259.26634404 129.45843611 -261.71044922 129.98022461 C-266.66823345 130.98234181 -271.59645476 131.59494253 -276.62890625 132.0703125 C-277.94072121 132.19924393 -277.94072121 132.19924393 -279.27903748 132.33078003 C-281.11148551 132.50961081 -282.9441786 132.68594711 -284.77709961 132.85986328 C-287.55982054 133.12474495 -290.34141697 133.39970234 -293.12304688 133.67578125 C-294.91660847 133.84956003 -296.71022657 134.02275681 -298.50390625 134.1953125 C-299.32290909 134.27653351 -300.14191193 134.35775452 -300.98573303 134.44143677 C-308.20341322 135.11591907 -315.34670946 135.31304682 -322.5625 134.5 C-323.40941406 134.4071875 -324.25632812 134.314375 -325.12890625 134.21875 C-325.74636719 134.1465625 -326.36382813 134.074375 -327 134 C-326.505 133.01 -326.505 133.01 -326 132 C-323.53271484 131.63696289 -323.53271484 131.63696289 -320.2109375 131.47265625 C-318.97553223 131.4046582 -317.74012695 131.33666016 -316.46728516 131.26660156 C-315.46946014 131.21735535 -315.46946014 131.21735535 -314.45147705 131.16711426 C-310.89838225 130.98810704 -307.34780921 130.76793878 -303.796875 130.55078125 C-303.06308624 130.50637909 -302.32929749 130.46197693 -301.57327271 130.41622925 C-240.90913583 126.69387481 -182.21577395 111.37981452 -127 86 C-125.34262974 85.25350244 -123.68508795 84.50738555 -122.02734375 83.76171875 C-82.1778671 65.60618297 -45.92265688 40.10463328 -12.6875 11.8125 C-11.82523804 11.08184326 -11.82523804 11.08184326 -10.94555664 10.33642578 C-7.11282035 7.05439874 -3.53068345 3.60546344 0 0 Z " fill="#4DB8C5" transform="translate(856,888)"/>
<path d="M0 0 C1 3 1 3 0.20239258 4.73901367 C-0.44499878 5.69384644 -0.44499878 5.69384644 -1.10546875 6.66796875 C-1.58830322 7.38823242 -2.0711377 8.10849609 -2.56860352 8.85058594 C-3.10283936 9.62176758 -3.6370752 10.39294922 -4.1875 11.1875 C-4.73269287 11.98833008 -5.27788574 12.78916016 -5.83959961 13.61425781 C-11.31769264 21.59412613 -17.08918956 29.33746927 -23 37 C-23.45729492 37.5976416 -23.91458984 38.1952832 -24.38574219 38.81103516 C-38.30228357 56.98068799 -53.73846759 73.78925226 -69.875 90 C-70.56432617 90.69399902 -71.25365234 91.38799805 -71.96386719 92.10302734 C-76.48037993 96.6054056 -81.16847015 100.84012879 -86 105 C-87.15644234 106.02174856 -88.31143846 107.04513679 -89.46484375 108.0703125 C-98.00388157 115.60547602 -106.82460804 122.65922242 -115.95068359 129.46972656 C-117.87543791 130.90698652 -119.79168475 132.3549302 -121.70703125 133.8046875 C-171.15597014 170.956694 -228.30527359 196.85059537 -287.8125 213.0625 C-288.58916016 213.2788208 -289.36582031 213.4951416 -290.16601562 213.71801758 C-293.85350582 214.68353152 -296.36216393 215.11898694 -300 214 C-299.09161377 213.74943848 -298.18322754 213.49887695 -297.24731445 213.24072266 C-228.7265364 194.27688231 -164.55343748 166.07165682 -109 121 C-108.02675781 120.22011719 -107.05351563 119.44023438 -106.05078125 118.63671875 C-100.74905432 114.35540788 -95.6115784 109.93387727 -90.58203125 105.3359375 C-88.47476034 103.42951087 -86.3471931 101.55591572 -84.203125 99.69140625 C-80.04213363 96.05765878 -75.97444232 92.33318424 -71.9375 88.5625 C-71.26912109 87.94568359 -70.60074219 87.32886719 -69.91210938 86.69335938 C-65.87789865 82.92574372 -62.15129732 79.01909493 -58.58178711 74.80761719 C-57.00558574 73.00638321 -55.35204382 71.34346444 -53.625 69.6875 C-49.83831127 65.96858199 -46.57336221 61.88174761 -43.25 57.75 C-41.25002574 55.30558702 -39.18980524 52.95817349 -37.0625 50.625 C-23.16555686 35.11404181 -11.3716478 17.40401175 0 0 Z " fill="#3EA9B5" transform="translate(1912,794)"/>
<path d="M0 0 C0.33 0 0.66 0 1 0 C2.84854617 73.33040479 -14.13394695 145.98938855 -46 212 C-46.47550293 212.99338379 -46.95100586 213.98676758 -47.44091797 215.01025391 C-64.83373616 251.19638117 -64.83373616 251.19638117 -75 263 C-74.48376009 258.31942485 -73.2799823 255.40750955 -70.6875 251.5 C-23.16759206 177.25903809 -1.92061682 87.3880654 0 0 Z " fill="#81BFC5" transform="translate(1988,533)"/>
<path d="M0 0 C40.7765132 -0.85445546 81.84994467 4.74387262 121.375 14.6875 C122.54325317 14.97258423 122.54325317 14.97258423 123.73510742 15.26342773 C125.8359375 15.82421875 125.8359375 15.82421875 129 17 C129.33 17.99 129.66 18.98 130 20 C124.90262666 19.03760709 119.845297 17.99488506 114.8203125 16.703125 C77.13177142 7.02132787 38.820849 3.16784712 0 2 C0 1.34 0 0.68 0 0 Z " fill="#ECECEC" transform="translate(524,43)"/>
<path d="M0 0 C1 3 1 3 0.20239258 4.73901367 C-0.22920166 5.37556885 -0.6607959 6.01212402 -1.10546875 6.66796875 C-1.82972046 7.74836426 -1.82972046 7.74836426 -2.56860352 8.85058594 C-3.10283936 9.62176758 -3.6370752 10.39294922 -4.1875 11.1875 C-5.00528931 12.38874512 -5.00528931 12.38874512 -5.83959961 13.61425781 C-11.31769264 21.59412613 -17.08918956 29.33746927 -23 37 C-23.45729492 37.5976416 -23.91458984 38.1952832 -24.38574219 38.81103516 C-38.31183967 56.9931646 -53.77754495 73.79229521 -69.875 90.0625 C-70.90898926 91.11606689 -70.90898926 91.11606689 -71.96386719 92.19091797 C-76.35211121 96.58655672 -80.9252073 100.41853993 -86 104 C-84.38468385 100.5803033 -82.58748974 98.34800823 -79.875 95.6875 C-79.06417969 94.89214844 -78.25335937 94.09679687 -77.41796875 93.27734375 C-75.38659431 91.36411064 -73.32239336 89.54474263 -71.1875 87.75 C-65.87125703 83.18118921 -61.27533001 77.91613948 -56.57763672 72.73046875 C-55.02424807 71.02659708 -53.45519149 69.33894068 -51.87890625 67.65625 C-45.63336643 60.98305553 -39.68319109 54.16533592 -34 47 C-33.15249351 45.94519216 -32.30483088 44.89050975 -31.45703125 43.8359375 C-20.21117157 29.76629991 -9.8494387 15.07431024 0 0 Z " fill="#55B6C1" transform="translate(1912,794)"/>
<path d="M0 0 C0.33 0 0.66 0 1 0 C1.89930241 35.67463502 -1.97993769 70.04740517 -9 105 C-9.66 105 -10.32 105 -11 105 C-10.21678946 97.99232671 -9.39685273 91.00658709 -8.1171875 84.0703125 C-3.04599989 56.45768323 -0.61667843 28.05886839 0 0 Z " fill="#B3D4D8" transform="translate(1988,533)"/>
<path d="M0 0 C-1 3 -1 3 -2.91650391 4.09985352 C-4.18373291 4.60923462 -4.18373291 4.60923462 -5.4765625 5.12890625 C-6.92506592 5.71454346 -6.92506592 5.71454346 -8.40283203 6.31201172 C-9.46614746 6.72467285 -10.52946289 7.13733398 -11.625 7.5625 C-12.72569824 7.99578613 -13.82639648 8.42907227 -14.96044922 8.87548828 C-23.92113377 12.33629547 -32.98440282 15.42828817 -42.125 18.375 C-43.37877441 18.77920166 -44.63254883 19.18340332 -45.92431641 19.59985352 C-49.60737729 20.76538832 -53.298488 21.89450508 -57 23 C-57.66302124 23.19936157 -58.32604248 23.39872314 -59.00915527 23.60412598 C-61.02024572 24.20196581 -63.03606558 24.77972635 -65.0546875 25.3515625 C-66.83721924 25.86323975 -66.83721924 25.86323975 -68.65576172 26.38525391 C-72.1342337 27.02467517 -74.57996396 26.80375728 -78 26 C-75.03066633 24.37813481 -72.26313868 23.47845404 -68.96875 22.73046875 C-54.92228608 19.3934084 -41.43187168 15.25523946 -27.875 10.3125 C-27.09987061 10.03087006 -26.32474121 9.74924011 -25.52612305 9.45907593 C-15.44739604 5.78485426 -15.44739604 5.78485426 -5.5703125 1.60546875 C-2 0 -2 0 0 0 Z " fill="#51C0CD" transform="translate(715,981)"/>
<path d="M0 0 C0.66 0 1.32 0 2 0 C1.36503832 4.34928333 -0.19366933 7.78833948 -2.140625 11.71484375 C-2.4593457 12.35911316 -2.77806641 13.00338257 -3.10644531 13.66717529 C-4.14665033 15.76120289 -5.19725855 17.84974954 -6.25 19.9375 C-6.78506165 21.00455673 -6.78506165 21.00455673 -7.33093262 22.09317017 C-23.23533482 53.75368903 -23.23533482 53.75368903 -32 64 C-31.48376009 59.31942485 -30.2799823 56.40750955 -27.6875 52.5 C-16.99157368 35.80910966 -8.34580957 17.94995635 0 0 Z " fill="#6CC0C9" transform="translate(1945,732)"/>
<path d="M0 0 C0.66 0.33 1.32 0.66 2 1 C-12.19 15.19 -26.38 29.38 -41 44 C-41.66 43.67 -42.32 43.34 -43 43 C-35.50655803 34.62125687 -27.68945898 26.57907005 -19.75 18.625 C-19.27923035 18.15173279 -18.80846069 17.67846558 -18.32342529 17.19085693 C-12.72513492 11.56822934 -7.03279385 6.1529279 -1 1 C-0.67 0.67 -0.34 0.34 0 0 Z " fill="#113033" transform="translate(199,164)"/>
<path d="M0 0 C0.33 0 0.66 0 1 0 C1.5272436 10.09085663 -0.08657955 19.40680019 -2 29.25 C-2.29005747 30.78496857 -2.57912669 32.32012423 -2.8671875 33.85546875 C-3.5667746 37.57256314 -4.27960209 41.28688525 -5 45 C-5.66 45 -6.32 45 -7 45 C-5.4052615 29.88568739 -2.653385 14.95599406 0 0 Z " fill="#9FD2D7" transform="translate(1984,593)"/>
<path d="M0 0 C1 2 1 2 0.36669922 4.25561523 C0.01623535 5.18059814 -0.33422852 6.10558105 -0.6953125 7.05859375 C-1.08203125 8.08533203 -1.46875 9.11207031 -1.8671875 10.16992188 C-2.28226563 11.24822266 -2.69734375 12.32652344 -3.125 13.4375 C-3.516875 14.48099609 -3.90875 15.52449219 -4.3125 16.59960938 C-6.94498142 23.52922959 -9.8499226 30.29045187 -13 37 C-13.66 37 -14.32 37 -15 37 C-12.55081692 29.42612362 -9.78524378 21.99482111 -6.9375 14.5625 C-6.49083984 13.37978516 -6.04417969 12.19707031 -5.58398438 10.97851562 C-4.93719727 9.28952148 -4.93719727 9.28952148 -4.27734375 7.56640625 C-3.88796631 6.54490479 -3.49858887 5.52340332 -3.09741211 4.47094727 C-2 2 -2 2 0 0 Z " fill="#7AC6CF" transform="translate(1961,695)"/>
<path d="M0 0 C-1 2 -1 2 -3.0378418 2.79370117 C-5.91785729 3.60452289 -8.79906988 4.40709135 -11.6875 5.1875 C-13.17926758 5.61579102 -13.17926758 5.61579102 -14.70117188 6.05273438 C-19.77927742 7.44135805 -23.79049271 8.53534031 -29 7 C-24.23052843 4.43693709 -19.13557736 3.23319639 -13.9375 1.8125 C-12.93138672 1.52697266 -11.92527344 1.24144531 -10.88867188 0.94726562 C-9.44137695 0.54991211 -9.44137695 0.54991211 -7.96484375 0.14453125 C-6.64407837 -0.22128052 -6.64407837 -0.22128052 -5.29663086 -0.59448242 C-3 -1 -3 -1 0 0 Z " fill="#59C5D2" transform="translate(666,1000)"/>
<path d="M0 0 C-2.44371368 2.95817972 -4.21185245 3.58824483 -8 4 C-14.39128468 4.29108821 -20.65513109 3.74178008 -27 3 C-26.67 2.34 -26.34 1.68 -26 1 C-22.7917943 0.83081552 -19.58341796 0.66510635 -16.375 0.5 C-15.47136719 0.45230469 -14.56773437 0.40460937 -13.63671875 0.35546875 C-9.08545547 0.12292245 -4.55915017 -0.06058671 0 0 Z " fill="#50BBC8" transform="translate(556,1019)"/>
<path d="M0 0 C0.66 0.33 1.32 0.66 2 1 C1.42100187 7.59525453 0.20265263 13.6891618 -1.5625 20.0625 C-1.79646484 20.92810547 -2.03042969 21.79371094 -2.27148438 22.68554688 C-2.8417334 24.79197695 -3.42001834 26.89622889 -4 29 C-4.66 29 -5.32 29 -6 29 C-5.33425862 22.51093459 -3.99578944 16.32918678 -2.4375 10 C-2.20353516 9.03449219 -1.96957031 8.06898438 -1.72851562 7.07421875 C-1.15626866 4.71515983 -0.58002171 2.35715708 0 0 Z " fill="#89C6CB" transform="translate(1976,637)"/>
<path d="M0 0 C0.66 0.33 1.32 0.66 2 1 C-0.65805311 3.71689965 -3.32797133 6.42184953 -6 9.125 C-6.74378906 9.88554688 -7.48757813 10.64609375 -8.25390625 11.4296875 C-12.88044604 16.09645807 -17.60899043 20.23767759 -23 24 C-19.39554758 16.36921266 -12.04419408 10.92677835 -5.73046875 5.5078125 C-3.72531622 3.76065928 -1.84156687 1.91829882 0 0 Z " fill="#4AB8C4" transform="translate(1849,874)"/>
<path d="M0 0 C1 3 1 3 0.04370117 4.9453125 C-0.45154053 5.66460938 -0.94678223 6.38390625 -1.45703125 7.125 C-1.99263672 7.91390625 -2.52824219 8.7028125 -3.08007812 9.515625 C-3.65177734 10.33546875 -4.22347656 11.1553125 -4.8125 12 C-5.65264648 13.22976563 -5.65264648 13.22976563 -6.50976562 14.484375 C-7.55370638 16.01099804 -8.6018744 17.53474466 -9.65551758 19.0546875 C-10.78696472 20.69176228 -11.89613456 22.34420183 -13 24 C-13.99 23.67 -14.98 23.34 -16 23 C-15.5153125 22.34515625 -15.030625 21.6903125 -14.53125 21.015625 C-9.47877996 14.13649271 -4.68221307 7.13539385 0 0 Z " fill="#5EB8C2" transform="translate(1912,794)"/>
<path d="M0 0 C0 0.66 0 1.32 0 2 C-2.6650444 2.96305013 -5.33188751 3.92051716 -8 4.875 C-8.74378906 5.14441406 -9.48757813 5.41382813 -10.25390625 5.69140625 C-15.11976819 7.42619181 -19.91930801 9.03065745 -25 10 C-25.66 9.34 -26.32 8.68 -27 8 C-22.876506 6.66197735 -18.75096648 5.33037699 -14.625 4 C-13.449375 3.6184375 -12.27375 3.236875 -11.0625 2.84375 C-9.94101563 2.4828125 -8.81953125 2.121875 -7.6640625 1.75 C-6.62717285 1.41484375 -5.5902832 1.0796875 -4.52197266 0.734375 C-2 0 -2 0 0 0 Z " fill="#3DACB9" transform="translate(1667,1968)"/>
<path d="M0 0 C4.16665169 -0.02926019 8.33327659 -0.04688594 12.5 -0.0625 C13.67304687 -0.07087891 14.84609375 -0.07925781 16.0546875 -0.08789062 C22.13794882 -0.10497844 27.98754144 0.05497248 34 1 C34 1.33 34 1.66 34 2 C21.625 2.495 21.625 2.495 9 3 C9 2.67 9 2.34 9 2 C6.03 1.67 3.06 1.34 0 1 C0 0.67 0 0.34 0 0 Z " fill="#7DC2CA" transform="translate(1456,1019)"/>
<path d="M0 0 C5.29012124 4.40843437 10.18808428 9.07559794 15 14 C14.67 14.99 14.34 15.98 14 17 C9.05 12.05 4.1 7.1 -1 2 C-0.67 1.34 -0.34 0.68 0 0 Z " fill="#3DA6B2" transform="translate(1839,180)"/>
<path d="M0 0 C0.33 0.99 0.66 1.98 1 3 C-3.29 7.29 -7.58 11.58 -12 16 C-12.99 15.67 -13.98 15.34 -15 15 C-10.05 10.05 -5.1 5.1 0 0 Z " fill="#3CA6B4" transform="translate(1853,1846)"/>
<path d="M0 0 C0 0.66 0 1.32 0 2 C-2.62299801 2.69608034 -5.2479207 3.38215382 -7.875 4.0625 C-8.62136719 4.26166016 -9.36773438 4.46082031 -10.13671875 4.66601562 C-15.7734375 6.11328125 -15.7734375 6.11328125 -18 5 C-13.34867054 0.55090225 -6.23621723 -0.4023366 0 0 Z " fill="#4AB6C4" transform="translate(639,1007)"/>
<path d="M0 0 C8.25 0.33 16.5 0.66 25 1 C25 1.33 25 1.66 25 2 C22.31288976 2.19647038 19.62571669 2.38239615 16.9375 2.5625 C16.18533203 2.61857422 15.43316406 2.67464844 14.65820312 2.73242188 C9.93352364 3.03921924 5.64144313 3.00795969 1 2 C0.67 1.34 0.34 0.68 0 0 Z " fill="#4DA2AC" transform="translate(1458,1995)"/>
<path d="M0 0 C13.45481848 1.06739687 13.45481848 1.06739687 19 3 C19.33 3.66 19.66 4.32 20 5 C13.15182898 4.51358785 6.66957927 3.64006048 0 2 C0 1.34 0 0.68 0 0 Z " fill="#F8F8F8" transform="translate(610,51)"/>
<path d="M0 0 C0.99386719 0.02707031 1.98773437 0.05414062 3.01171875 0.08203125 C4.15060547 0.13423828 4.15060547 0.13423828 5.3125 0.1875 C5.3125 0.8475 5.3125 1.5075 5.3125 2.1875 C0.54942563 3.14011487 -3.8541528 3.27083357 -8.6875 3.1875 C-6.10291354 -0.17334451 -4.11082043 -0.14508778 0 0 Z " fill="#3FABB8" transform="translate(561.6875,1018.8125)"/>
<path d="M0 0 C0 0.66 0 1.32 0 2 C-2.07881495 2.55875662 -4.16330494 3.09643187 -6.25 3.625 C-7.99023438 4.07746094 -7.99023438 4.07746094 -9.765625 4.5390625 C-13.11615725 5.01655381 -14.26822383 4.87978657 -17 3 C-14.91798472 2.49453964 -12.83432933 1.99583165 -10.75 1.5 C-9.58984375 1.2215625 -8.4296875 0.943125 -7.234375 0.65625 C-4 0 -4 0 0 0 Z " fill="#3BABB8" transform="translate(1622,1982)"/>
<path d="M0 0 C-4.83592913 3.22395275 -9.95716249 2.28671404 -15.5625 1.5 C-16.7690625 1.2525 -16.7690625 1.2525 -18 1 C-18 0.67 -18 0.34 -18 0 C-15.75067773 -0.1954625 -13.50049858 -0.38108226 -11.25 -0.5625 C-9.99703125 -0.66691406 -8.7440625 -0.77132812 -7.453125 -0.87890625 C-4.60547636 -0.97876723 -2.65713933 -0.90584295 0 0 Z " fill="#58C9D6" transform="translate(579,1018)"/>
<path d="M0 0 C0.33 0.99 0.66 1.98 1 3 C-1.31 5.31 -3.62 7.62 -6 10 C-6.99 9.67 -7.98 9.34 -9 9 C-6.03 6.03 -3.06 3.06 0 0 Z " fill="#4DA4B0" transform="translate(1858,864)"/>
<path d="M0 0 C0.99 0.33 1.98 0.66 3 1 C-0.96 3.97 -4.92 6.94 -9 10 C-9 9.01 -9 8.02 -9 7 C-7.13671875 5.140625 -7.13671875 5.140625 -4.6875 3.25 C-3.88699219 2.61578125 -3.08648438 1.9815625 -2.26171875 1.328125 C-1.51535156 0.88984375 -0.76898437 0.4515625 0 0 Z " fill="#40C0CC" transform="translate(1809,1887)"/>
<path d="M0 0 C5.29158974 1.40071493 7.77478044 4.85487245 11 9 C7.40303663 8.42703238 5.74677205 7.10347171 3.25 4.5 C2.63640625 3.8709375 2.0228125 3.241875 1.390625 2.59375 C0 1 0 1 0 0 Z " fill="#4BABB7" transform="translate(1160,1860)"/>
<path d="M0 0 C0 0.66 0 1.32 0 2 C-8.261959 6.59225513 -8.261959 6.59225513 -13 6 C-9.40464172 2.97989905 -4.81374718 0 0 0 Z " fill="#51BECB" transform="translate(742,969)"/>
<path d="M0 0 C0.89332031 0.12761719 1.78664063 0.25523437 2.70703125 0.38671875 C3.60808594 0.50660156 4.50914062 0.62648438 5.4375 0.75 C6.12457031 0.85699219 6.81164062 0.96398437 7.51953125 1.07421875 C7.51953125 1.40421875 7.51953125 1.73421875 7.51953125 2.07421875 C1.08453125 2.56921875 1.08453125 2.56921875 -5.48046875 3.07421875 C-2.48046875 0.07421875 -2.48046875 0.07421875 0 0 Z " fill="#3BA2AF" transform="translate(581.48046875,1016.92578125)"/>
<path d="M0 0 C-1.28813342 0.83878455 -2.58063256 1.67086783 -3.875 2.5 C-4.59429688 2.9640625 -5.31359375 3.428125 -6.0546875 3.90625 C-8 5 -8 5 -10 5 C-10 4.34 -10 3.68 -10 3 C-3.375 -1.125 -3.375 -1.125 0 0 Z " fill="#48B2BF" transform="translate(776,952)"/>
<path d="M0 0 C3.78786597 0.5260925 6.17152224 1.38103911 9 4 C9 4.66 9 5.32 9 6 C5.06326356 4.68775452 2.77280706 3.08089673 0 0 Z " fill="#46B9C6" transform="translate(1216,1907)"/>
<path d="M0 0 C0.99 0.33 1.98 0.66 3 1 C-0.96 4.465 -0.96 4.465 -5 8 C-5.66 7.67 -6.32 7.34 -7 7 C-4.69 4.69 -2.38 2.38 0 0 Z " fill="#42BECA" transform="translate(1837,1862)"/>
<path d="M0 0 C-2 2 -2 2 -5 2.25 C-8 2 -8 2 -10 0 C-3.375 -1.125 -3.375 -1.125 0 0 Z " fill="#5ECAD7" transform="translate(623,1011)"/>
<path d="M0 0 C2.96404505 2.80804268 5.44499019 5.18315774 7 9 C3.64564078 7.61198929 1.88709697 6.11371 0 3 C0 2.01 0 1.02 0 0 Z " fill="#45BCC9" transform="translate(1891,239)"/>
<path d="M0 0 C0 0.66 0 1.32 0 2 C-3.375 2.625 -3.375 2.625 -7 3 C-7.66 2.34 -8.32 1.68 -9 1 C-5.92677456 0.08941469 -3.19902639 -0.08886184 0 0 Z " fill="#3EA7B3" transform="translate(1595,1988)"/>
<path d="M0 0 C3.71162994 1.85581497 5.01775064 2.55714584 7 6 C6.67 6.99 6.34 7.98 6 9 C4.02 6.03 2.04 3.06 0 0 Z " fill="#41ADB9" transform="translate(1884,232)"/>
<path d="M0 0 C5.57142857 5.14285714 5.57142857 5.14285714 6 9 C3.35247996 6.42215154 1.05567935 4.08351902 -1 1 C-0.67 0.67 -0.34 0.34 0 0 Z " fill="#3FAFBA" transform="translate(1871,214)"/>
</svg>
